<svg width="108" height="23" viewBox="0 0 108 23" fill="none" xmlns="http://www.w3.org/2000/svg">
<path d="M4.27 4.45V9.7H11.32V13.03H4.27V18.58H12.22V22H0.0700002V1.03H12.22V4.45H4.27ZM20.3268 18.46H29.7468V22H15.4668V18.76L24.8268 4.6H15.4668V1.06H29.7468V4.3L20.3268 18.46ZM52.132 1.06L44.452 22H39.352L31.672 1.06H36.172L41.932 17.71L47.662 1.06H52.132ZM64.3701 22.21C62.4101 22.21 60.6101 21.75 58.9701 20.83C57.3301 19.91 56.0301 18.64 55.0701 17.02C54.1101 15.38 53.6301 13.53 53.6301 11.47C53.6301 9.43 54.1101 7.6 55.0701 5.98C56.0301 4.34 57.3301 3.06 58.9701 2.14C60.6101 1.22 62.4101 0.76 64.3701 0.76C66.3501 0.76 68.1501 1.22 69.7701 2.14C71.4101 3.06 72.7001 4.34 73.6401 5.98C74.6001 7.6 75.0801 9.43 75.0801 11.47C75.0801 13.53 74.6001 15.38 73.6401 17.02C72.7001 18.64 71.4101 19.91 69.7701 20.83C68.1301 21.75 66.3301 22.21 64.3701 22.21ZM64.3701 18.46C65.6301 18.46 66.7401 18.18 67.7001 17.62C68.6601 17.04 69.4101 16.22 69.9501 15.16C70.4901 14.1 70.7601 12.87 70.7601 11.47C70.7601 10.07 70.4901 8.85 69.9501 7.81C69.4101 6.75 68.6601 5.94 67.7001 5.38C66.7401 4.82 65.6301 4.54 64.3701 4.54C63.1101 4.54 61.9901 4.82 61.0101 5.38C60.0501 5.94 59.3001 6.75 58.7601 7.81C58.2201 8.85 57.9501 10.07 57.9501 11.47C57.9501 12.87 58.2201 14.1 58.7601 15.16C59.3001 16.22 60.0501 17.04 61.0101 17.62C61.9901 18.18 63.1101 18.46 64.3701 18.46ZM92.4548 1.06V4.45H86.8748V22H82.6748V4.45H77.0948V1.06H92.4548ZM99.7192 4.45V9.7H106.769V13.03H99.7192V18.58H107.669V22H95.5192V1.03H107.669V4.45H99.7192Z" fill="#2BBA07"/>
</svg>
